{"accessors" : [{"bufferView" : 0, "byteOffset" : 0, "componentType" : 5123, "count" : 2721, "type" : "SCALAR", "max" : [2720], "min" : [0]}, {"bufferView" : 1, "byteOffset" : 0, "componentType" : 5126, "count" : 2721, "type" : "VEC3", "max" : [2.2210724353790283, 2.232422351837158, 9.022907257080078], "min" : [-2.210573434829712, -2.2107465267181396, 0.0019030570983886719], "name" : "POSITION"}, {"bufferView" : 1, "byteOffset" : 12, "componentType" : 5126, "count" : 2721, "type" : "VEC3", "max" : [1.0000044107437134, 1.0000044107437134, 1.0000044107437134], "min" : [-1.0000044107437134, -1.0000044107437134, -1.0000044107437134], "name" : "NORMAL"}, {"bufferView" : 1, "byteOffset" : 24, "componentType" : 5126, "count" : 2721, "type" : "VEC2", "max" : [1.5842747688293457, 0.7397260665893555], "min" : [-0.6043793559074402, -1.6167794466018677], "name" : "TEXCOORD_0"}], "asset" : {"generator" : "Aspose.3D 23.2", "version" : "2.0"}, "buffers" : [{"uri" : "data:application/octet-stream;base64,", "byteLength" : 92524}], "bufferViews" : [{"buffer" : 0, "byteOffset" : 0, "byteLength" : 5444, "target" : 34963}, {"buffer" : 0, "byteOffset" : 5448, "byteLength" : 87072, "byteStride" : 32, "target" : 34962}], "images" : [{"uri" : "C:\\Users\\ATHARVA\\Desktop\\SniperTower\\SniperTower.fbm\\T_Wooden_Planks_vl2jcdwfw_1K_N.HDR"}, {"uri" : "C:\\Users\\ATHARVA\\Desktop\\SniperTower\\SniperTower.fbm\\T_Wooden_Planks_vl2jcdwfw_1K_D.HDR"}], "materials" : [{"name" : "Wood", "pbrMetallicRoughness" : {"baseColorFactor" : [0.800000011920929, 0.800000011920929, 0.800000011920929, 1], "baseColorTexture" : {"index" : 1, "texCoord" : 0}, "metallicFactor" : 0, "roughnessFactor" : 0}, "normalTexture" : {"index" : 0, "texCoord" : 0, "scale" : 1}, "emissiveFactor" : [0, 0, 0], "alphaMode" : "OPAQUE", "doubleSided" : false}], "meshes" : [{"primitives" : [{"attributes" : {"POSITION" : 1, "NORMAL" : 2, "TEXCOORD_0" : 3}, "indices" : 0, "material" : 0, "mode" : 4}], "name" : "Cube.033"}], "nodes" : [{"matrix" : [100, 0, 0, 0, 0, -1.6292067955264296E-05, -99.99999999999866, 0, 0, 99.99999999999866, -1.6292067955264296E-05, 0, 0, 0, 0, 1], "mesh" : 0, "name" : "Tower"}], "samplers" : [{"magFilter" : 9729, "minFilter" : 9729, "wrapS" : 10497, "wrapT" : 10497}, {"magFilter" : 9729, "minFilter" : 9729, "wrapS" : 10497, "wrapT" : 10497}], "scene" : 0, "scenes" : [{"nodes" : [0]}], "textures" : [{"sampler" : 0, "source" : 0, "name" : "normalmap_texture"}, {"sampler" : 1, "source" : 1, "name" : "base_color_texture"}]}